<svg width="166" height="40" viewBox="0 0 166 40" fill="none" xmlns="http://www.w3.org/2000/svg">
<path d="M30.3475 40L13.7148 20L30.3475 0H22.1771L6.41967 18.9781V0H0V40H6.41967L6.41967 21.0219L22.1771 40H30.3475Z" fill="#0079B5"/>
<path d="M46.6885 40L30.1071 20L46.6885 0H38.518L21.8853 20L38.518 40H46.6885Z" fill="#EB591F"/>
<path d="M69.543 9.27516H66.8944L62.8687 5.40609H60.9353V9.27516H58.8694V0H60.9353V3.81607H62.8422L66.6561 0H69.1589L64.4843 4.47858L69.543 9.27516Z" fill="#07253F"/>
<path d="M72.3238 0H81.0507V9.27516H78.9849V1.69603H74.191C74.1734 2.01403 74.1469 2.46896 74.1116 3.0608C74.0763 3.89998 74.041 4.51833 74.0056 4.91583C73.9792 5.30451 73.9262 5.79918 73.8467 6.39986C73.7673 6.9917 73.6613 7.42454 73.5289 7.69838C73.4053 7.96339 73.2332 8.25047 73.0124 8.55965C72.8006 8.85999 72.5269 9.06757 72.1914 9.18241C71.8647 9.28841 71.4719 9.34141 71.0128 9.34141C70.6067 9.34141 70.2094 9.32374 69.821 9.28841V7.60563C70.077 7.64096 70.2977 7.65863 70.4831 7.65863C70.6861 7.65863 70.8627 7.62771 71.0128 7.56588C71.1717 7.50405 71.3086 7.39804 71.4233 7.24787C71.5381 7.08887 71.6352 6.92545 71.7147 6.75762C71.7941 6.58978 71.8603 6.35569 71.9133 6.05535C71.9751 5.74618 72.0192 5.45909 72.0457 5.19409C72.081 4.92908 72.1119 4.57575 72.1384 4.13407C72.1649 3.68356 72.1826 3.28164 72.1914 2.9283C72.2091 2.57496 72.2267 2.1112 72.2444 1.53703C72.2709 0.954016 72.2973 0.441674 72.3238 0Z" fill="#07253F"/>
<path d="M90.6908 0H93.8691V9.27516H91.8562V1.36477L86.3737 9.27516H83.1955V0H85.2084V7.91039L90.6908 0Z" fill="#07253F"/>
<path d="M104.334 0H106.4V9.27516H104.334V5.40609H98.0839V9.27516H96.0181V0H98.0839V3.71006H104.334V0Z" fill="#07253F"/>
<path d="M116.026 0H119.204V9.27516H117.191V1.36477L111.709 9.27516H108.53V0H110.543V7.91039L116.026 0Z" fill="#07253F"/>
<path d="M132.026 9.27516H129.378L125.352 5.40609H123.419V9.27516H121.353V0H123.419V3.81607H125.326L129.14 0H131.642L126.968 4.47858L132.026 9.27516Z" fill="#07253F"/>
<path d="M142.077 9.27516L141.111 7.19487H135.258L134.291 9.27516H132.238L136.635 0H139.8L144.196 9.27516H142.077ZM135.973 5.6446H140.396L138.184 0.874516L135.973 5.6446Z" fill="#07253F"/>
<path d="M69.1661 22.6855H70.3314V26.5148H68.4113V24.3815H60.2803V26.5148H58.3601V22.6855H59.3533C59.7682 22.2084 60.0816 21.3825 60.2935 20.2077C60.5142 19.024 60.6687 17.3235 60.757 15.1063H69.1661V22.6855ZM67.1002 22.6855V16.8024H62.611C62.4609 18.5249 62.2799 19.8278 62.068 20.7112C61.865 21.5504 61.6266 22.2084 61.3529 22.6855H67.1002Z" fill="#07253F"/>
<path d="M72.4729 23.242C71.4312 22.3763 70.9103 21.2103 70.9103 19.7439C70.9103 18.2775 71.4312 17.1115 72.4729 16.2458C73.5147 15.3802 74.9714 14.9473 76.843 14.9473C78.7146 14.9473 80.1713 15.3802 81.2131 16.2458C82.2636 17.1115 82.7889 18.2775 82.7889 19.7439C82.7889 21.2103 82.2636 22.3763 81.2131 23.242C80.1713 24.1076 78.7146 24.5405 76.843 24.5405C74.9714 24.5405 73.5147 24.1076 72.4729 23.242ZM73.9826 17.4914C73.3116 18.0655 72.9761 18.8164 72.9761 19.7439C72.9761 20.6714 73.3116 21.4223 73.9826 21.9964C74.6624 22.5706 75.6158 22.8577 76.843 22.8577C78.0701 22.8577 79.0236 22.5706 79.7034 21.9964C80.3832 21.4223 80.7231 20.6714 80.7231 19.7439C80.7231 18.8164 80.3832 18.0655 79.7034 17.4914C79.0236 16.9172 78.0701 16.6301 76.843 16.6301C75.6158 16.6301 74.6624 16.9172 73.9826 17.4914Z" fill="#07253F"/>
<path d="M95.0276 24.3815H92.3791L88.3533 20.5124H86.4199V24.3815H84.354V15.1063H86.4199V18.9224H88.3268L92.1407 15.1063H94.6436L89.9689 19.5849L95.0276 24.3815Z" fill="#07253F"/>
<path d="M95.3718 16.8024V15.1063H105.502V16.8024H101.477V24.3815H99.4108V16.8024H95.3718Z" fill="#07253F"/>
<path d="M107.462 23.242C106.42 22.3763 105.899 21.2103 105.899 19.7439C105.899 18.2775 106.42 17.1115 107.462 16.2458C108.504 15.3802 109.96 14.9473 111.832 14.9473C113.704 14.9473 115.16 15.3802 116.202 16.2458C117.253 17.1115 117.778 18.2775 117.778 19.7439C117.778 21.2103 117.253 22.3763 116.202 23.242C115.16 24.1076 113.704 24.5405 111.832 24.5405C109.96 24.5405 108.504 24.1076 107.462 23.242ZM108.972 17.4914C108.301 18.0655 107.965 18.8164 107.965 19.7439C107.965 20.6714 108.301 21.4223 108.972 21.9964C109.651 22.5706 110.605 22.8577 111.832 22.8577C113.059 22.8577 114.013 22.5706 114.692 21.9964C115.372 21.4223 115.712 20.6714 115.712 19.7439C115.712 18.8164 115.372 18.0655 114.692 17.4914C114.013 16.9172 113.059 16.6301 111.832 16.6301C110.605 16.6301 109.651 16.9172 108.972 17.4914Z" fill="#07253F"/>
<path d="M125.554 15.1063C126.622 15.1063 127.487 15.3581 128.149 15.8616C128.82 16.3651 129.156 17.1071 129.156 18.0876C129.156 19.077 128.829 19.8102 128.176 20.2872C127.531 20.7553 126.657 20.9894 125.554 20.9894H121.409V24.3815H119.343V15.1063H125.554ZM125.448 19.3861C125.96 19.3861 126.362 19.2757 126.653 19.0549C126.944 18.8341 127.09 18.5116 127.09 18.0876C127.09 17.6636 126.944 17.3456 126.653 17.1336C126.362 16.9128 125.96 16.8024 125.448 16.8024H121.409V19.3861H125.448Z" fill="#07253F"/>
<path d="M138.205 24.3815L137.239 22.3012H131.385L130.419 24.3815H128.366L132.763 15.1063H135.928L140.324 24.3815H138.205ZM132.101 20.7509H136.524L134.312 15.9808L132.101 20.7509Z" fill="#07253F"/>
<path d="M69.543 39.841H66.8944L62.8687 35.9719H60.9353V39.841H58.8694V30.5658H60.9353V34.3819H62.8422L66.6561 30.5658H69.1589L64.4843 35.0444L69.543 39.841Z" fill="#07253F"/>
<path d="M79.594 39.841L78.6273 37.7607H72.7741L71.8074 39.841H69.7547L74.1513 30.5658H77.3163L81.7128 39.841H79.594ZM73.4892 36.2104H77.9122L75.7007 31.4404L73.4892 36.2104Z" fill="#07253F"/>
<path d="M84.4351 30.5658H93.162V39.841H91.0962V32.2619H86.3023C86.2847 32.5799 86.2582 33.0348 86.2229 33.6266C86.1876 34.4658 86.1523 35.0842 86.1169 35.4817C86.0905 35.8703 86.0375 36.365 85.958 36.9657C85.8786 37.5575 85.7726 37.9904 85.6402 38.2642C85.5166 38.5292 85.3445 38.8163 85.1237 39.1255C84.9119 39.4258 84.6382 39.6334 84.3027 39.7482C83.9761 39.8542 83.5832 39.9072 83.1241 39.9072C82.718 39.9072 82.3207 39.8896 81.9323 39.8542V38.1715C82.1883 38.2068 82.409 38.2245 82.5944 38.2245C82.7975 38.2245 82.974 38.1936 83.1241 38.1317C83.283 38.0699 83.4199 37.9639 83.5346 37.8137C83.6494 37.6547 83.7465 37.4913 83.826 37.3235C83.9054 37.1556 83.9716 36.9215 84.0246 36.6212C84.0864 36.312 84.1305 36.0249 84.157 35.7599C84.1923 35.4949 84.2233 35.1416 84.2497 34.6999C84.2762 34.2494 84.2939 33.8475 84.3027 33.4941C84.3204 33.1408 84.338 32.677 84.3557 32.1029C84.3822 31.5199 84.4086 31.0075 84.4351 30.5658Z" fill="#07253F"/>
<path d="M105.305 30.4068C107.141 30.4068 108.563 30.8397 109.569 31.7054C110.576 32.571 111.079 33.7371 111.079 35.2034C111.079 36.6609 110.576 37.827 109.569 38.7015C108.563 39.5672 107.141 40 105.305 40C103.645 40 102.321 39.6422 101.332 38.9267C100.343 38.2024 99.7652 37.2175 99.5974 35.9719H97.3727V39.841H95.3068V30.5658H97.3727V34.2759H99.6107C99.8225 33.0745 100.418 32.1294 101.398 31.4404C102.378 30.7513 103.681 30.4068 105.305 30.4068ZM102.564 37.456C103.199 38.0301 104.113 38.3172 105.305 38.3172C106.497 38.3172 107.411 38.0301 108.046 37.456C108.691 36.8729 109.013 36.1221 109.013 35.2034C109.013 34.2847 108.691 33.5383 108.046 32.9641C107.411 32.3811 106.497 32.0896 105.305 32.0896C104.113 32.0896 103.199 32.3811 102.564 32.9641C101.928 33.5383 101.61 34.2847 101.61 35.2034C101.61 36.1221 101.928 36.8729 102.564 37.456Z" fill="#07253F"/>
<path d="M128.746 39.841H126.124L122.429 35.9852H120.668V39.841H118.655V35.9852H116.907L113.212 39.841H110.577L115.318 35.0444L110.776 30.5658H113.265L116.881 34.3819H118.655V30.5658H120.668V34.3819H122.456L126.058 30.5658H128.547L124.018 35.0444L128.746 39.841Z" fill="#07253F"/>
<path d="M138.256 30.5658H140.322V39.841H138.256V35.9719H132.006V39.841H129.94V30.5658H132.006V34.2759H138.256V30.5658Z" fill="#07253F"/>
<path d="M143.445 38.7015C142.404 37.8358 141.883 36.6698 141.883 35.2034C141.883 33.7371 142.404 32.571 143.445 31.7054C144.487 30.8397 145.944 30.4068 147.815 30.4068C149.687 30.4068 151.144 30.8397 152.185 31.7054C153.236 32.571 153.761 33.7371 153.761 35.2034C153.761 36.6698 153.236 37.8358 152.185 38.7015C151.144 39.5672 149.687 40 147.815 40C145.944 40 144.487 39.5672 143.445 38.7015ZM144.955 32.9509C144.284 33.5251 143.949 34.2759 143.949 35.2034C143.949 36.1309 144.284 36.8818 144.955 37.456C145.635 38.0301 146.588 38.3172 147.815 38.3172C149.043 38.3172 149.996 38.0301 150.676 37.456C151.356 36.8818 151.695 36.1309 151.695 35.2034C151.695 34.2759 151.356 33.5251 150.676 32.9509C149.996 32.3767 149.043 32.0896 147.815 32.0896C146.588 32.0896 145.635 32.3767 144.955 32.9509Z" fill="#07253F"/>
<path d="M160.676 29.8238C158.858 29.8238 157.918 29.1746 157.856 27.876H159.193C159.255 28.4502 159.749 28.7373 160.676 28.7373C161.577 28.7373 162.067 28.4502 162.146 27.876H163.484C163.422 29.1746 162.486 29.8238 160.676 29.8238ZM162.822 30.5658H166V39.841H163.987V31.9306L158.505 39.841H155.326V30.5658H157.339V38.4762L162.822 30.5658Z" fill="#07253F"/>
</svg>
